<svg width="73" height="29" viewBox="0 0 73 29" fill="none" xmlns="http://www.w3.org/2000/svg">
<rect x="0.0359497" y="0.141846" width="72.2275" height="27.9007" rx="4" fill="#2F2F2F"/>
<path d="M24.7409 19.1277V18.9877L24.9929 18.8897C25.1796 18.815 25.3056 18.7217 25.3709 18.6097C25.4456 18.4977 25.4829 18.3484 25.4829 18.1617V10.8537C25.4829 10.6577 25.4456 10.5037 25.3709 10.3917C25.3056 10.2797 25.1796 10.191 24.9929 10.1257L24.7409 10.0277V9.88769H28.7589C29.8976 9.88769 30.7189 10.0977 31.2229 10.5177C31.7269 10.9284 31.9789 11.451 31.9789 12.0857C31.9789 12.5617 31.7922 12.9957 31.4189 13.3877C31.0549 13.7704 30.4249 14.041 29.5289 14.1997C30.5556 14.3117 31.3069 14.5824 31.7829 15.0117C32.2589 15.4317 32.4969 15.945 32.4969 16.5517C32.4969 16.8504 32.4316 17.1537 32.3009 17.4617C32.1702 17.7604 31.9462 18.0357 31.6289 18.2877C31.3209 18.5397 30.8962 18.745 30.3549 18.9037C29.8136 19.053 29.1276 19.1277 28.2969 19.1277H24.7409ZM27.5549 14.1857H28.1569C28.7822 14.1857 29.2302 14.041 29.5009 13.7517C29.7809 13.4624 29.9209 12.9584 29.9209 12.2397C29.9209 11.493 29.7949 10.961 29.5429 10.6437C29.2909 10.3264 28.8802 10.1677 28.3109 10.1677H27.5549V14.1857ZM27.5549 18.8477H28.2549C28.9549 18.8477 29.4729 18.661 29.8089 18.2877C30.1542 17.9144 30.3269 17.331 30.3269 16.5377C30.3269 15.791 30.1636 15.259 29.8369 14.9417C29.5102 14.6244 28.9736 14.4657 28.2269 14.4657H27.5549V18.8477ZM35.4227 19.3377C35.0587 19.3377 34.7227 19.2677 34.4147 19.1277C34.116 18.9877 33.878 18.7637 33.7007 18.4557C33.5327 18.1384 33.4533 17.723 33.4627 17.2097L33.5047 13.6117C33.5047 13.397 33.4673 13.243 33.3927 13.1497C33.318 13.0564 33.2013 12.991 33.0427 12.9537L32.8747 12.8977V12.7577L35.3807 12.2677L35.5207 12.4077L35.4507 14.3957V17.7697C35.4507 18.0684 35.5347 18.2877 35.7027 18.4277C35.88 18.5677 36.0993 18.6377 36.3607 18.6377C36.622 18.6377 36.8553 18.6004 37.0607 18.5257C37.266 18.451 37.4713 18.339 37.6767 18.1897L37.7327 13.6257C37.7327 13.411 37.7 13.2617 37.6347 13.1777C37.5693 13.0844 37.448 13.019 37.2707 12.9817L37.1307 12.9397V12.7997L39.5807 12.2677L39.7207 12.4077L39.6787 14.3957V18.1897C39.6787 18.395 39.7067 18.5537 39.7627 18.6657C39.8187 18.7777 39.94 18.871 40.1267 18.9457L40.2667 18.9877V19.1277L37.8167 19.2677L37.6907 18.4417C37.3827 18.6937 37.0467 18.9084 36.6827 19.0857C36.328 19.2537 35.908 19.3377 35.4227 19.3377ZM41.9286 22.4877C41.5553 22.4877 41.2566 22.3944 41.0326 22.2077C40.818 22.021 40.7106 21.783 40.7106 21.4937C40.7106 21.2324 40.804 21.0224 40.9906 20.8637C41.1773 20.705 41.3873 20.6257 41.6206 20.6257C41.854 20.6257 42.05 20.6724 42.2086 20.7657C42.3673 20.8684 42.5073 21.013 42.6286 21.1997L42.7266 21.3117C42.932 21.5917 43.1373 21.587 43.3426 21.2977C43.4266 21.1577 43.52 20.971 43.6226 20.7377C43.7346 20.5137 43.8606 20.2104 44.0006 19.8277L41.2846 13.3317C41.2193 13.1544 41.1493 13.0144 41.0746 12.9117C41 12.7997 40.8786 12.7064 40.7106 12.6317L40.4586 12.5337V12.3937H43.9446V12.5197L43.6646 12.6317C43.4593 12.697 43.352 12.8044 43.3426 12.9537C43.3426 13.0937 43.38 13.271 43.4546 13.4857L44.9106 17.2657L46.2966 13.4437C46.3713 13.229 46.3993 13.0517 46.3806 12.9117C46.362 12.7624 46.2453 12.6597 46.0306 12.6037L45.7366 12.5337V12.3937H47.6826V12.5337L47.3746 12.6317C47.16 12.697 47.0106 12.7904 46.9266 12.9117C46.8426 13.033 46.7633 13.201 46.6886 13.4157L44.4346 19.5617C44.0706 20.5417 43.7066 21.2744 43.3426 21.7597C42.9786 22.245 42.5073 22.4877 41.9286 22.4877Z" fill="white"/>
</svg>
